<svg xmlns="http://www.w3.org/2000/svg" width="100" height="100" viewBox="0 0 100 100"><rect width="100%" height="100%" fill="#DDDDDD"/><path fill="#999999" d="M28.535 43.53v9.95h-1.99l-4.02-6.8-.04.01v6.79h-2v-9.95h2l4.02 6.79.04-.01v-6.78zm1.39 6.33v-.15q0-1.65.93-2.71.92-1.05 2.55-1.05 1.64 0 2.57 1.05t.93 2.71v.15q0 1.66-.92 2.71-.93 1.05-2.56 1.05-1.64 0-2.57-1.05t-.93-2.71m1.99-.15v.15q0 1.01.36 1.62.35.61 1.15.61.77 0 1.13-.61.36-.62.36-1.62v-.15q0-.98-.37-1.6-.36-.63-1.14-.63-.77 0-1.13.63t-.36 1.6m11.99-6.18v9.95h-1.99v-9.95zm1.83 2.55h1.85l.08.98q.36-.53.89-.82.54-.29 1.24-.29.72 0 1.22.31.51.32.77.95.34-.59.89-.93.54-.33 1.28-.33 1.09 0 1.73.75.63.76.63 2.3v4.48h-2V49q0-.85-.27-1.17-.27-.33-.81-.33-.43 0-.74.19-.31.18-.49.52v.22q.01.09.01.19v4.86h-1.99V49q0-.82-.27-1.16-.28-.34-.82-.34-.41 0-.71.15-.3.16-.5.44v5.39h-1.99zm18.45 7.4h-2q-.11-.25-.19-.53-.07-.28-.11-.58-.31.54-.81.9-.5.35-1.2.35-1.16 0-1.79-.59-.63-.6-.63-1.63 0-1.09.84-1.69t2.44-.6h1.12v-.59q0-.53-.28-.82-.28-.3-.83-.3-.49 0-.75.24-.26.23-.26.65l-1.93-.01-.01-.04q-.04-.93.82-1.61t2.26-.68q1.33 0 2.15.67.83.67.83 1.92v3.05q0 .52.08.98t.25.91m-3.82-1.33q.52 0 .93-.26t.56-.6v-1.05h-1.12q-.63 0-.96.32t-.33.77q0 .37.25.59.24.23.67.23m4.69-2.16v-.15q0-1.75.76-2.82.77-1.07 2.14-1.07.62 0 1.09.28.48.28.81.8l.16-.95h1.72v7.37q0 1.44-.95 2.23-.94.79-2.63.79-.56 0-1.19-.16-.63-.15-1.16-.42l.37-1.49q.46.22.93.33.48.12 1.04.12.82 0 1.2-.34.39-.35.39-1.07v-.67q-.33.42-.77.63-.45.22-1.02.22-1.36 0-2.13-1-.76-1-.76-2.63m2-.15v.15q0 .97.33 1.52.33.56 1.06.56.46 0 .78-.17.32-.16.51-.48V48.2q-.19-.33-.51-.52-.32-.18-.76-.18-.73 0-1.07.65t-.34 1.69m9.49 3.78q-1.6 0-2.56-1.02-.96-1.03-.96-2.61v-.27q0-1.65.91-2.71.9-1.07 2.43-1.06 1.5 0 2.32.9.83.9.83 2.44v1.09h-4.42l-.01.04q.06.73.49 1.2t1.18.47q.66 0 1.1-.13t.96-.42l.54 1.23q-.45.37-1.19.61-.73.24-1.62.24m-.18-6.14q-.55 0-.88.43-.32.42-.39 1.11l.02.04h2.45v-.18q0-.64-.3-1.02t-.9-.38"/></svg>