<svg width="100%" height="100%" id="svg" viewBox="0 0 1440 590" xmlns="http://www.w3.org/2000/svg" class="transition duration-300 ease-in-out delay-150"><defs><linearGradient id="gradient" x1="0%" y1="50%" x2="100%" y2="50%"><stop offset="5%" stop-color="#F78DA7"></stop><stop offset="95%" stop-color="#8ED1FC"></stop></linearGradient></defs><path d="M 0,600 L 0,150 C 75.44497607655504,118.39234449760767 150.88995215311007,86.78468899521532 251,91 C 351.1100478468899,95.21531100478468 475.88516746411483,135.25358851674642 566,160 C 656.1148325358852,184.74641148325358 711.5693779904306,194.20095693779905 815,200 C 918.4306220095694,205.79904306220095 1069.8373205741627,207.94258373205741 1182,199 C 1294.1626794258373,190.05741626794259 1367.0813397129186,170.0287081339713 1440,150 L 1440,600 L 0,600 Z" stroke="none" stroke-width="0" fill="url(#gradient)" fill-opacity="0.53" class="transition-all duration-300 ease-in-out delay-150 path-0"></path><defs><linearGradient id="gradient" x1="0%" y1="50%" x2="100%" y2="50%"><stop offset="5%" stop-color="#F78DA7"></stop><stop offset="95%" stop-color="#8ED1FC"></stop></linearGradient></defs><path d="M 0,600 L 0,350 C 113.77990430622009,352.0287081339713 227.55980861244018,354.0574162679426 332,357 C 436.4401913875598,359.9425837320574 531.5406698564593,363.799043062201 614,359 C 696.4593301435407,354.200956937799 766.2775119617224,340.74641148325355 859,352 C 951.7224880382776,363.25358851674645 1067.3492822966507,399.2153110047847 1168,403 C 1268.6507177033493,406.7846889952153 1354.3253588516745,378.3923444976076 1440,350 L 1440,600 L 0,600 Z" stroke="none" stroke-width="0" fill="url(#gradient)" fill-opacity="1" class="transition-all duration-300 ease-in-out delay-150 path-1"></path></svg>